<?xml version="1.0" standalone="no"?>
<!DOCTYPE svg PUBLIC "-//W3C//DTD SVG 20010904//EN"
 "http://www.w3.org/TR/2001/REC-SVG-20010904/DTD/svg10.dtd">
<svg version="1.0" xmlns="http://www.w3.org/2000/svg"
 width="240.000000pt" height="240.000000pt" viewBox="0 0 240.000000 240.000000"
 preserveAspectRatio="xMidYMid meet">
<metadata>
Created by potrace 1.11, written by Peter Selinger 2001-2013
</metadata>
<g transform="translate(0.000000,240.000000) scale(0.100000,-0.100000)"
fill="#000000" stroke="none">
<path d="M1100 2305 c-8 -2 -49 -9 -90 -15 -480 -78 -868 -489 -915 -970 -4
-36 -8 -76 -9 -90 -6 -51 14 -226 34 -300 114 -433 455 -746 900 -826 14 -3
86 -7 160 -9 149 -4 235 8 371 51 394 124 696 480 757 894 9 59 8 272 -1 332
-4 26 -19 86 -33 134 -134 462 -553 786 -1034 799 -69 1 -132 1 -140 0z"/>
</g>
</svg>
